<svg viewBox="0 0 16 16" fill="none" xmlns="http://www.w3.org/2000/svg">
  <g clip-path="url(#clip0_2203_33)">
    <path
      d="M8 1.33337C11.68 1.33337 14.6667 4.32004 14.6667 8.00004C14.6667 11.68 11.68 14.6667 8 14.6667C4.32 14.6667 1.33333 11.68 1.33333 8.00004C1.33333 4.32004 4.32 1.33337 8 1.33337ZM8 13.3334C10.9467 13.3334 13.3333 10.9467 13.3333 8.00004C13.3333 5.05337 10.9467 2.66671 8 2.66671C5.05333 2.66671 2.66667 5.05337 2.66667 8.00004C2.66667 10.9467 5.05333 13.3334 8 13.3334ZM10.3573 4.70004L11.3 5.64271L8 8.94271L7.05733 8.00004L10.3573 4.70004V4.70004Z"
      fill="currentColor" />
  </g>
  <defs>
    <clipPath id="clip0_2203_33">
      <rect width="16" height="16" fill="currentColor" />
    </clipPath>
  </defs>
</svg>