<svg viewBox="0 0 16 16" fill="none" xmlns="http://www.w3.org/2000/svg">
  <g clip-path="url(#clip0_2203_399)">
    <path
      d="M12 6.66671C12 5.60584 11.5786 4.58843 10.8284 3.83828C10.0783 3.08813 9.06086 2.66671 8 2.66671C6.93913 2.66671 5.92172 3.08813 5.17157 3.83828C4.42143 4.58843 4 5.60584 4 6.66671V12H12V6.66671ZM13.3333 12.4447L13.6 12.8C13.6371 12.8496 13.6598 12.9085 13.6653 12.9701C13.6709 13.0318 13.6592 13.0937 13.6315 13.1491C13.6038 13.2045 13.5612 13.251 13.5086 13.2836C13.4559 13.3161 13.3952 13.3334 13.3333 13.3334H2.66667C2.60476 13.3334 2.54408 13.3161 2.49142 13.2836C2.43876 13.251 2.39621 13.2045 2.36852 13.1491C2.34084 13.0937 2.32912 13.0318 2.33468 12.9701C2.34024 12.9085 2.36286 12.8496 2.4 12.8L2.66667 12.4447V6.66671C2.66667 5.25222 3.22857 3.89567 4.22876 2.89547C5.22896 1.89528 6.58551 1.33337 8 1.33337C9.41449 1.33337 10.771 1.89528 11.7712 2.89547C12.7714 3.89567 13.3333 5.25222 13.3333 6.66671V12.4447ZM6.33333 14H9.66666C9.66666 14.4421 9.49107 14.866 9.17851 15.1786C8.86595 15.4911 8.44203 15.6667 8 15.6667C7.55797 15.6667 7.13405 15.4911 6.82149 15.1786C6.50893 14.866 6.33333 14.4421 6.33333 14V14Z"
      fill="currentColor" />
  </g>
  <defs>
    <clipPath id="clip0_2203_399">
      <rect width="16" height="16" fill="currentColor" />
    </clipPath>
  </defs>
</svg>